# xmcd
#
# Track frame offsets:
#	150
#	10975
#	21260
#	30552
#	42602
#	49825
#	63005
#	73807
#	85972
#	96845
#	108462
#	124707
#	138632
#	150392
#	161777
#	173822
#	186172
#	199020
#	208895
#	222522
#	232727
#	242422
#	254130
#
# Disc length: 3537 seconds
#
# Revision: 1
# Processed by: cddbd v1.5.1PL0 Copyright (c) Steve Scherf et al.
# Submitted via: CDex 1.50Beta5
#
DISCID=4d0dcf17
DTITLE=さまざまなアーティスト - Gang Stage
DYEAR=1900
DGENRE=R&B
TTITLE0=You turned my bitter into sweet
TTITLE1=Love is gonna get you
TTITLE2=I can't believe what you say
TTITLE3=Camel Walk
TTITLE4=Stay with me
TTITLE5=Everybody needs love
TTITLE6=Shine it on
TTITLE7=I can't stand it (I can't take it no more)
TTITLE8=Soul power
TTITLE9=Take your shoes off (Part1)
TTITLE10=Freedom and Justice
TTITLE11=Pico
TTITLE12=Running out
TTITLE13=What you see is what you're gonna get
TTITLE14=Hey little girl
TTITLE15=Two way wishing
TTITLE16=Let your hair down
TTITLE17=No puppy love
TTITLE18=I can feel our love
TTITLE19=Peaches'n' cream
TTITLE20=Goodbye so long
TTITLE21=Lay this burden down
TTITLE22=If I could turn back the hands of time
EXTD=
EXTT0=
EXTT1=
EXTT2=
EXTT3=
EXTT4=
EXTT5=
EXTT6=
EXTT7=
EXTT8=
EXTT9=
EXTT10=
EXTT11=
EXTT12=
EXTT13=
EXTT14=
EXTT15=
EXTT16=
EXTT17=
EXTT18=
EXTT19=
EXTT20=
EXTT21=
EXTT22=
PLAYORDER=
